<svg width="99" height="102" viewBox="0 0 99 102" fill="none" xmlns="http://www.w3.org/2000/svg">
<rect x="20.3807" y="4.5723" width="75.3146" height="78.901" rx="10" transform="rotate(11.3965 20.3807 4.5723)" fill="#4F45E4"/>
<path d="M59.9745 41.803C59.6406 39.1074 58.4707 36.584 56.6291 34.5874C54.7875 32.5907 52.3667 31.2211 49.7068 30.6708C47.0468 30.1205 44.2813 30.4173 41.7987 31.5193C39.316 32.6214 37.241 34.4734 35.8649 36.8153C34.4888 39.1572 33.8808 41.8713 34.1264 44.5765C34.3719 47.2816 35.4587 49.8419 37.2339 51.8977C39.0092 53.9536 41.3839 55.4017 44.0244 56.0387C46.6649 56.6757 49.4386 56.4696 51.956 55.4494" stroke="white" stroke-width="8"/>
<path d="M40.1001 60.2225C40.4186 62.92 41.5741 65.45 43.4042 67.4571C45.2344 69.4643 47.6473 70.8477 50.304 71.4132C52.9608 71.9787 55.7279 71.6978 58.2168 70.6099C60.7058 69.5221 62.7914 67.6819 64.1808 65.3479C65.5703 63.014 66.1938 60.3034 65.9637 57.5969C65.7336 54.8904 64.6615 52.3239 62.898 50.258C61.1345 48.192 58.7682 46.7303 56.1313 46.0782C53.4945 45.4261 50.7197 45.6164 48.1965 46.6222" stroke="white" stroke-width="8"/>
</svg>
